<?xml version="1.0" standalone="no"?>
<!DOCTYPE svg PUBLIC "-//W3C//DTD SVG 20010904//EN"
 "http://www.w3.org/TR/2001/REC-SVG-20010904/DTD/svg10.dtd">
<svg version="1.0" xmlns="http://www.w3.org/2000/svg"
 width="500.000000pt" height="500.000000pt" viewBox="0 0 500.000000 500.000000"
 preserveAspectRatio="xMidYMid meet">
<metadata>
Created by potrace 1.11, written by Peter Selinger 2001-2013
</metadata>
<g transform="translate(0.000000,500.000000) scale(0.100000,-0.100000)"
fill="#000000" stroke="none">
<path d="M986 4013 c3 -13 363 -2103 515 -2990 l11 -63 129 0 c71 0 129 3 129
6 0 7 519 3023 524 3047 4 15 -7 17 -127 17 l-132 0 -189 -1218 c-103 -669
-191 -1253 -195 -1297 l-7 -80 -8 85 c-6 74 -368 2427 -381 2488 -5 21 -9 22
-139 22 -123 0 -134 -1 -130 -17z"/>
<path d="M2805 4018 c-50 -18 -92 -55 -116 -105 l-24 -48 -3 -1335 c-2 -923 1
-1351 8 -1387 14 -65 56 -124 106 -149 36 -18 69 -19 489 -22 307 -2 462 0
488 8 49 14 106 65 128 115 17 37 19 84 19 723 l0 682 -300 0 -300 0 0 -115 0
-115 165 0 165 0 0 -530 0 -530 -345 0 -345 0 0 1290 0 1290 345 0 345 0 0
-345 0 -345 135 0 135 0 0 380 c0 415 -1 423 -58 484 -15 16 -45 37 -67 47
-37 17 -72 19 -490 18 -287 0 -461 -4 -480 -11z"/>
</g>
</svg>
